<svg height="512" viewBox="0 0 57 57" width="512" xmlns="http://www.w3.org/2000/svg"><g id="Page-1" fill="none" fill-rule="evenodd"><g id="023---Cuisine" fill="rgb(0,0,0)" fill-rule="nonzero"><path id="Shape" d="m29 21c-.7962196-.0018644-1.560365.3136074-2.1233788.8766212s-.8784856 1.3271592-.8766212 2.1233788c.0014287.145763.0141333.2911971.038.435.0914805.6264447.3817325 1.2069487.828 1.656.706-.055 1.417-.091 2.134-.091s1.425.036 2.13.09c.37083-.3725394.6350003-.8376862.765-1.347-.7736227-.7274406-1.0771598-1.8254966-.787-2.847-.5516472-.5728111-1.3127472-.8963147-2.108-.896z"/><path id="Shape" d="m49.318 10.871c.1296088-.7200514-.3240093-1.4164757-1.035-1.589-3.5-.848-7.038-1.623-10.435-2.293 3.246 1.525 6.645 3.218 10.016 5 .699432.0545912 1.3270813-.4280167 1.454-1.118z"/><path id="Shape" d="m8.221 12.3c2.3803173-1.3277351 5.3191636-1.1298528 7.5.505 1.2626871.9958564 2.3274218 2.2196739 3.139 3.608 1.042 1.723 2.181 3.506 3.384 5.3.238.351.471.686.688 1l.355.512c.1781749.2473342.445152.4161211.745.471.0555896-.9405558.377817-1.845845.929-2.61-.91-2.017-1.633-4.3-.906-6.471.2263922-.7365642.7671526-1.3351718 1.477-1.635 1.548-.653 3.618.133 4.715.661 2.0099442.874316 3.3866395 2.7710537 3.595 4.953-.0875372 1.1356322-.3097631 2.2568322-.662 3.34l-.11.358c-.0404468.1124594-.0630533.2305535-.067.35-.0012539.3429475.181099.6603482.478.832.0306317.0178105.0603368.0371689.089.058.0449708.0214018.0910342.040428.138.057.4929508.1614125 1.0274864-.0808871 1.231-.558.6558193-1.5882488 1.017693-3.2824138 1.068-5-.3053066-2.0332673-1.251137-3.9161703-2.7-5.375-.3360928-.3517996-.3779085-.8916403-.1-1.291.2726774-.3939081.7890383-.5348105 1.224-.334l13.56 6.42c.6826655.3096227 1.4880791.0266038 1.827-.642.3204685-.6655714.062182-1.4655116-.587-1.818-6.062-3.285-12.383-6.375-17.792-8.7-8.32-3.558-14.523-5.361-18.439-5.361-4.12882803-.04968849-8.22210095.76794405-12.015 2.4l.015 12.91zm-5.221-6.931c-.00028523-.42571516.26898431-.80493978.671-.945 1.37383754-.47465235 2.78467258-.83455242 4.218-1.076.35226387-.05984199.70969443.07279228.93765105.34794074.22795661.27514847.29180725.65100955.1675.986-.12430726.33499046-.41788718.57821727-.77015105.63805926-1.09079908.18412297-2.16791694.44170916-3.224.771v3.909c0 .5522847-.44771525 1-1 1s-1-.4477153-1-1z"/><path id="Shape" d="m55.5 54h-41.5c-.5522847 0-1-.4477153-1-1s.4477153-1 1-1h39.98c-.3938943-9.9222635-6.6247087-18.6700643-15.8732668-22.2853979-9.2485582-3.6153337-19.7601508-1.4122705-26.7787332 5.6123979-4.46364525 4.4288375-7.07619222 10.3892912-7.308 16.673h4.98c.55228475 0 1 .4477153 1 1s-.44771525 1-1 1h-6.5c-.82842712 0-1.5.6715729-1.5 1.5s.67157288 1.5 1.5 1.5h53c.8284271 0 1.5-.6715729 1.5-1.5s-.6715729-1.5-1.5-1.5zm-35.5-22c.5522847 0 1 .4477153 1 1s-.4477153 1-1 1-1-.4477153-1-1 .4477153-1 1-1zm-11.656 17.18c-.09941127.5434482-.62055181.9034112-1.16399999.804-.54344818-.0994113-.90341124-.6205518-.80400001-1.164.83877011-4.5837362 3.0614734-8.8005557 6.369-12.083 1.067719-1.0695292 2.2368846-2.0327261 3.491-2.876.4586725-.3078987 1.0801013-.1856725 1.388.273s.1856725 1.0801013-.273 1.388c-1.1469132.7700978-2.2156774 1.6506309-3.191 2.629-3.0208669 2.995099-5.05075941 6.8444257-5.816 11.029z"/></g></g></svg>